# xmcd
#
# Track frame offsets:
#	150
#	11083
#	24442
#	42200
#	51561
#	69016
#	79767
#	89020
#	106890
#	117280
#	142868
#	159163
#	172371
#	189497
#	203076
#	216170
#	231598
#	245067
#	258374
#	274788
#	289903
#
# Disc length: 4141 seconds
#
# Revision: 2
# Processed by: cddbd v1.5.2PL0 Copyright (c) Steve Scherf et al.
# Submitted via: audiograbber 1.83.01
#
DISCID=33102b15
DTITLE=Armagh Pipers Club Presents - Live Recordings From The William Kennedy P
DTITLE=iping Festival
DYEAR=1900
DGENRE=
TTITLE0=Michael McGoldrick and José Manuel Tejedor - Barralin
TTITLE1=Robbie Hannon - Speed The Plough/The Beare Island Reel
TTITLE2=Gordon Duncan - Lorient Mornings/Grande Nuit In Port Du Peche/Davy Webs
TTITLE2=ter's
TTITLE3=Kathryn Tickell - Bill Charlton's Fancy
TTITLE4=Allan MacDonald - Sandy MacNab's/Willie Cameron/Fingal's Weeping (Cuchu
TTITLE4=llain)
TTITLE5=Anxo Lorenzo - <untitled>
TTITLE6=Luigi Lai - Ballu Seriu
TTITLE7=Tiarnán Ó Duinnchinn and Cillian Vallely - (Excerpt from) The Singing Str
TTITLE7=eam III/The Dark Haired Lass/Dan Breen's Reel
TTITLE8=Ceri Rhys Matthews - Difyrrwch Gwyr Y Gogledd/Dydd Trwy'r Dellt
TTITLE9=José Manuel Tejedor - Salton/Floteu De Remis
TTITLE10=Mick O'Brien - The Green Fields Of America
TTITLE11=Anxo Lorenzo and Kathryn Tickell - Ledicias Da Vila De Ortegán/A Camposa
TTITLE12=Moebius - Harbinger/Bandoneon
TTITLE13=Michael McGoldrick - Jenny Picking Cockles/The Earl's Chair
TTITLE14=Field Marshall Montgomery 'Mini' Pipe Band - Arty The Camperman/Bronni
TTITLE14=e's Blue Brazzie/Rory Gallagher's
TTITLE15=Gianni Perilli and Guido Iannetta  - Tu Scendi Salle Stelle
TTITLE16=Tiarnán Ó Duinnchinn - The Whinny Hills Of Leitrim/McGoldrick's No.2
TTITLE17=Robert Watt - The Mason's Apron
TTITLE18=Tommy Keane - The Buck From The Mountain/Cal O'Callaghan's
TTITLE19=Kathryn Tickell - Westoe
TTITLE20=Cillian Vallely - The Singing Stream Pt.1
EXTD=
EXTT0=
EXTT1=
EXTT2=
EXTT3=
EXTT4=
EXTT5=
EXTT6=
EXTT7=
EXTT8=
EXTT9=
EXTT10=
EXTT11=
EXTT12=
EXTT13=
EXTT14=
EXTT15=
EXTT16=
EXTT17=
EXTT18=
EXTT19=
EXTT20=
PLAYORDER=
